<?xml version="1.0" encoding="UTF-8" standalone="no"?>
<!DOCTYPE svg PUBLIC "-//W3C//DTD SVG 1.1//EN" "http://www.w3.org/Graphics/SVG/1.1/DTD/svg11.dtd">
<svg width="100%" height="100%" viewBox="0 0 1774 404" version="1.1" xmlns="http://www.w3.org/2000/svg" xmlns:xlink="http://www.w3.org/1999/xlink" xml:space="preserve" xmlns:serif="http://www.serif.com/" style="fill-rule:evenodd;clip-rule:evenodd;stroke-linejoin:round;stroke-miterlimit:2;">
    <g transform="matrix(5.55556,0,0,5.55556,1254.26,403.767)">
        <path d="M0,-72.678L0,-56.5L22.518,-56.5L22.518,0L42.937,0L42.937,-56.463L65.28,-56.442L65.28,-72.678L0,-72.678ZM-59.388,0L-38.254,-53L-16.976,0L4.375,0L-27.827,-72.678L-48.07,-72.678L-80.389,0L-59.388,0ZM-146.963,-56.839L-88.99,-56.839L-88.99,-72.678L-146.963,-72.678L-146.963,-56.839ZM77.591,0L93.43,0L93.43,-72.678L77.591,-72.678L77.591,0ZM-146.963,-28.935L-88.99,-28.935L-88.99,-44.774L-146.963,-44.774L-146.963,-28.935ZM-146.963,0L-88.99,0L-88.99,-15.839L-146.963,-15.839L-146.963,0ZM-156.462,-35.352L-156.462,-72.678L-176.676,-72.678L-176.676,-59.701L-156.462,-35.352ZM-225.767,-37.409L-225.767,0L-205.859,0L-205.859,-12.426L-225.767,-37.409ZM-209.225,-72.678L-156.462,-8.576L-156.462,0L-173.35,0L-225.767,-62.83L-225.767,-72.63L-209.225,-72.678Z" style="fill:rgb(239,119,27);fill-rule:nonzero;"/>
    </g>
</svg>
